<svg enable-background="new 0 0 256 256" viewBox="0 0 256 256" xmlns="http://www.w3.org/2000/svg"><g id="Caption"><g/></g><g id="Icons"><g><g><g><g><g><path d="m248.233 113.327-29.855-59.467h-179.345l-29.855 59.467.003.006 119.524 130.71 119.528-130.71z" fill="#72c2e9"/></g><g><path d="m68.885 113.327h-59.71l29.861-59.465z" fill="#c5e5fe"/></g><g><path d="m158.455 53.862-29.859 59.465-29.851-59.465z" fill="#4ba5c8"/></g><g><path d="m128.705 244.043-119.52-130.704h59.711z" fill="#4ba5c8"/></g><g><path d="m248.236 113.327h-59.931l29.85-59.465h.22z" fill="#c5e5fe"/></g><g><path d="m128.596 113.327h-59.711l29.86-59.465z" fill="#c5e5fe"/></g><g><path d="m188.305 113.327h-59.709l29.859-59.465z" fill="#c5e5fe"/></g><g><path d="m174.982 114.647-12.93-25.761c-.619-1.233-.121-2.736 1.113-3.355 1.235-.619 2.736-.121 3.356 1.113l12.93 25.761c.619 1.233.121 2.736-1.113 3.355-1.233.619-2.736.124-3.356-1.113zm-17.417-34.697-1.346-2.682c-.619-1.233-.121-2.736 1.113-3.355s2.736-.12 3.355 1.113l1.346 2.682c.619 1.233.121 2.736-1.113 3.355-1.235.622-2.737.119-3.355-1.113z" fill="#fff"/></g><g><path d="m248.236 113.339h-59.94l-59.591 130.704z" fill="#4ba5c8"/></g></g></g><g><g><g><path d="m139.889 21.921c-3.729-1.228-6.641-2.022-8.591-10.421-.635-2.737-4.548-2.729-5.181 0-1.907 8.213-4.566 9.092-8.591 10.422-2.424.801-2.43 4.248 0 5.051 6.686 2.209 7.444 5.476 8.591 10.421.637 2.743 4.545 2.742 5.182 0 1.905-8.212 4.709-9.139 8.591-10.421 2.423-.801 2.429-4.249-.001-5.052z"/></g><g><path d="m132.757 24.53c-1.47 1.04-2.79 2.42-3.93 4.44-.95-1.59-2.25-3.09-4.17-4.4 1.55-1.06 2.94-2.51 4.12-4.64 1.2 2.16 2.57 3.59 3.98 4.6z" fill="#f0c020"/></g></g></g></g><g><path d="m21.614 115.561c-1.234-.62-1.732-2.122-1.113-3.356l12.082-24.065c.62-1.233 2.123-1.73 3.356-1.112 1.234.62 1.732 2.122 1.113 3.356l-12.082 24.065c-.619 1.232-2.119 1.733-3.356 1.112zm16.568-33.003c-1.234-.62-1.731-2.122-1.112-3.356l1.346-2.681c.619-1.234 2.121-1.732 3.356-1.112 1.234.62 1.731 2.122 1.112 3.356l-1.346 2.681c-.615 1.225-2.112 1.736-3.356 1.112z" fill="#fff"/></g><g><g><path d="m137.557 200.363c-1.256-.574-1.809-2.057-1.235-3.313l1.246-2.729c.574-1.257 2.057-1.808 3.313-1.236 1.256.574 1.809 2.057 1.235 3.313l-1.246 2.729c-.57 1.249-2.047 1.812-3.313 1.236zm5.401-11.825c-1.256-.574-1.809-2.057-1.235-3.313l33.22-72.737c.574-1.255 2.059-1.807 3.313-1.235 1.256.574 1.809 2.057 1.235 3.313l-33.22 72.737c-.573 1.253-2.053 1.809-3.313 1.235z" fill="#c5e5fe"/></g></g><g><g><path d="m118.596 200.577c-1.381 0-2.5-1.119-2.5-2.5v-3c0-1.381 1.119-2.5 2.5-2.5s2.5 1.119 2.5 2.5v3c0 1.381-1.12 2.5-2.5 2.5zm0-13c-1.381 0-2.5-1.119-2.5-2.5v-69.38c0-1.381 1.119-2.5 2.5-2.5s2.5 1.119 2.5 2.5v69.38c0 1.381-1.12 2.5-2.5 2.5z" fill="#c5e5fe"/></g></g><g><path d="m93.711 194.655-2.024-2.214c-.932-1.02-.861-2.601.158-3.532s2.6-.861 3.532.157l2.024 2.214c.932 1.02.861 2.601-.158 3.532-1.024.936-2.605.857-3.532-.157zm-8.773-9.595-64.048-70.046c-.932-1.019-.861-2.6.158-3.531s2.601-.861 3.532.157l64.048 70.046c.932 1.02.861 2.601-.158 3.532-1.019.932-2.601.862-3.532-.158z" fill="#c5e5fe"/></g><g><path d="m233.974 112.787-17.938-35.731c-.619-1.234-.121-2.737 1.113-3.356 1.235-.618 2.736-.121 3.356 1.112l17.938 35.731c.619 1.234.121 2.737-1.113 3.356-1.237.621-2.737.12-3.356-1.112z" fill="#fff"/></g><g><path d="m115.171 114.449-12.829-25.561c-.619-1.233-.121-2.736 1.113-3.355s2.736-.122 3.356 1.113l12.829 25.561c.619 1.233.121 2.736-1.113 3.355-1.233.619-2.735.123-3.356-1.113zm-17.314-34.498-1.346-2.682c-.619-1.233-.121-2.736 1.113-3.355s2.737-.12 3.355 1.113l1.346 2.682c.619 1.233.121 2.736-1.113 3.355-1.236.622-2.737.119-3.355-1.113z" fill="#fff"/></g><g><path d="m164.998 189.543c-1.019-.932-1.09-2.513-.158-3.532l2.024-2.214c.931-1.019 2.514-1.088 3.532-.157 1.019.932 1.09 2.513.158 3.532l-2.024 2.214c-.932 1.019-2.514 1.087-3.532.157zm8.773-9.594c-1.019-.932-1.09-2.513-.158-3.531l59.218-64.767c.932-1.021 2.514-1.09 3.532-.158 1.019.932 1.09 2.513.158 3.531l-59.218 64.767c-.931 1.02-2.513 1.09-3.532.158z" fill="#c5e5fe"/></g><g><path d="m91.976 157.766c-.56-1.22-2.09-1.79-3.32-1.239-1.279.595-1.793 2.094-1.23 3.319.561 1.204 2.005 1.826 3.32 1.23 1.25-.569 1.799-2.06 1.23-3.31z"/><path d="m250.467 112.205-29.854-59.467c-.424-.845-1.289-1.378-2.234-1.378h-179.346c-.943 0-1.849.6-2.237 1.377l-10.56 21.04c-.62 1.229-.12 2.739 1.11 3.35 1.269.633 2.745.106 3.36-1.11l8.325-16.587 25.804 51.398h-51.602l8.502-16.931c.61-1.239.11-2.739-1.12-3.359-1.21-.61-2.75-.09-3.35 1.109l-10.32 20.561c-.461.911-.272 2.093.392 2.813l119.524 130.711c.769.838 2.182 1.332 3.719-.033l.002-.002 119.496-130.677c.634-.694.849-1.901.389-2.815zm-177.527-1.378 25.802-51.395 25.802 51.395zm102.565-17.42 8.751 17.42h-51.608l25.803-51.395 8.083 16.105c.642 1.267 2.169 1.724 3.36 1.109 1.271-.646 1.714-2.162 1.11-3.35l-8.501-16.937h51.603l-25.804 51.399-8.328-16.593c-.6-1.2-2.14-1.72-3.35-1.11-.6.3-1.05.811-1.25 1.44-.209.641-.169 1.321.131 1.912zm-46.909 14.347-25.802-51.394h51.604zm-59.709 0-25.802-51.394h51.603zm115.528 8.079-53.219 116.722-.098-116.722zm7.943-5.006 25.911-51.612 25.911 51.612zm-125.066 5.006 15.974 34.914c.589 1.279 2.089 1.794 3.31 1.24 1.239-.569 1.818-2.014 1.24-3.32l-15.031-32.834h53.314l.098 116.727-30.061-65.704c-.56-1.21-2.09-1.79-3.32-1.229-1.25.57-1.8 2.06-1.23 3.31l28.226 61.675-104.957-114.779zm70.263 114.828 52.356-114.828h52.648z"/><path d="m175.485 82.226c-.6-1.199-2.14-1.72-3.35-1.109-1.23.62-1.73 2.13-1.11 3.359.635 1.286 2.204 1.699 3.35 1.11 1.23-.619 1.73-2.129 1.11-3.36z"/><path d="m22.865 86.066c1.186.612 2.706.164 3.35-1.109.635-1.271.09-2.761-1.11-3.36-1.21-.6-2.75-.08-3.36 1.12-.62 1.217-.11 2.734 1.12 3.349z"/></g></g></g></svg>