<?xml version="1.0" encoding="iso-8859-1"?>
<!-- Generator: Adobe Illustrator 19.0.0, SVG Export Plug-In . SVG Version: 6.00 Build 0)  -->
<svg version="1.1" id="Capa_1" xmlns="http://www.w3.org/2000/svg" xmlns:xlink="http://www.w3.org/1999/xlink" x="0px" y="0px"
	 viewBox="0 0 464.985 464.985" style="enable-background:new 0 0 464.985 464.985;" xml:space="preserve">
<g>
	<g>
		<path style="fill:#00EFD1;" d="M448.786,228.405h5.747c0,38.139-35.004,68.963-77.845,68.963s-78.367-30.824-78.367-68.963
			H448.786z"/>
		<g>
			<polygon style="fill:#00ACEA;" points="330.713,379.915 330.713,421.711 134.272,421.711 134.272,379.915 167.186,379.915 
				297.798,379.915 			"/>
			<path style="fill:#00ACEA;" d="M297.798,377.303v2.612H167.186v-2.612c0-30.302,29.257-54.857,65.306-54.857
				S297.798,347.001,297.798,377.303z"/>
		</g>
		<path style="fill:#00CEB4;" d="M270.631,81.074c0.289,0,0.522,0.234,0.522,0.522c-0.008,21.352-17.324,38.655-38.676,38.647
			c-21.341-0.008-38.639-17.306-38.647-38.647c0-0.289,0.234-0.522,0.522-0.522c0.01-21.063,17.093-38.131,38.157-38.121
			C253.56,42.964,270.621,60.025,270.631,81.074L270.631,81.074z"/>
		<path style="fill:#00EFD1;" d="M160.917,228.405h5.747c0,38.139-35.004,68.963-78.367,68.963s-77.845-30.824-77.845-68.963
			H160.917z"/>
	</g>
	<path style="fill:#083863;" d="M457.145,218.478L386.092,75.327c-1.875-3.465-5.465-5.659-9.404-5.747l-4.702,1.045h-91.951
		c-6.798-26.257-33.594-42.032-59.851-35.235c-17.274,4.472-30.763,17.961-35.235,35.235H92.998l-4.702-1.045
		c-3.939,0.088-7.529,2.282-9.404,5.747L7.839,218.478c-4.655,1.001-7.943,5.166-7.837,9.927c0,43.886,39.706,79.935,88.294,79.935
		s88.816-36.049,88.816-79.935c-0.086-4.694-3.291-8.754-7.837-9.927L106.06,91.523h78.367
		c3.951,18.899,18.717,33.665,37.616,37.616v183.902c-33.959,3.657-60.604,29.257-64.784,55.38h-22.988
		c-6.132,0.493-11.001,5.362-11.494,11.494v41.796c0.545,5.745,5.645,9.96,11.39,9.414c0.035-0.003,0.069-0.007,0.104-0.01h196.441
		c5.739,0.603,10.881-3.561,11.483-9.3c0.004-0.035,0.007-0.069,0.01-0.104v-41.796c-0.493-6.132-5.362-11.001-11.494-11.494
		h-22.988c-4.18-26.122-30.825-51.722-64.784-55.38V129.14c18.899-3.951,33.665-18.717,37.616-37.616h78.367l-63.216,126.955
		c-4.545,1.173-7.751,5.233-7.837,9.927c0,43.886,39.706,79.935,88.816,79.935s88.294-36.049,88.294-79.935
		C465.089,223.645,461.8,219.48,457.145,218.478z M88.296,102.495l57.469,114.416H31.349L88.296,102.495z M88.296,286.397
		c-32.914,0-60.604-22.465-66.351-48.588H155.17C149.423,263.932,121.733,286.397,88.296,286.397L88.296,286.397z M321.309,410.217
		H143.676v-20.898h177.633V410.217z M286.305,368.421H178.68c4.18-20.898,26.645-36.571,53.812-36.571
		S282.125,347.523,286.305,368.421z M232.492,109.809c-15.293,0-27.69-12.397-27.69-27.69v-1.045c0-15.293,12.397-27.69,27.69-27.69
		s27.69,12.397,27.69,27.69v1.045C260.182,97.412,247.785,109.809,232.492,109.809L232.492,109.809z M433.635,216.911H319.219
		l57.469-114.416L433.635,216.911z M376.688,286.397c-33.437,0-61.126-22.465-66.873-48.588h133.224
		C437.292,263.932,409.603,286.397,376.688,286.397z"/>
</g>
<g>
</g>
<g>
</g>
<g>
</g>
<g>
</g>
<g>
</g>
<g>
</g>
<g>
</g>
<g>
</g>
<g>
</g>
<g>
</g>
<g>
</g>
<g>
</g>
<g>
</g>
<g>
</g>
<g>
</g>
</svg>
